<svg width="17" height="20" viewBox="0 0 17 20" fill="none" xmlns="http://www.w3.org/2000/svg">
<path id="Vector" d="M11.3916 15.5385V16.2308C11.3916 16.9652 11.0998 17.6696 10.5805 18.1889C10.0612 18.7082 9.35681 19 8.62236 19C7.88791 19 7.18355 18.7082 6.66422 18.1889C6.14489 17.6696 5.85313 16.9652 5.85313 16.2308V15.5385M16.0508 14.1292C14.9397 12.7692 14.1552 12.0769 14.1552 8.32764C14.1552 4.89423 12.4019 3.67101 10.9589 3.07692C10.7672 2.99817 10.5868 2.81731 10.5284 2.62043C10.2752 1.75894 9.56563 1 8.62236 1C7.67909 1 6.96904 1.75938 6.71851 2.6213C6.6601 2.82034 6.47967 2.99817 6.28798 3.07692C4.84322 3.67188 3.09169 4.89077 3.09169 8.32764C3.08952 12.0769 2.30505 12.7692 1.1939 14.1292C0.733513 14.6925 1.13678 15.5385 1.94202 15.5385H15.307C16.1079 15.5385 16.5086 14.69 16.0508 14.1292Z" stroke="#6E6E6E" stroke-linecap="round" stroke-linejoin="round"/>
</svg>
