<svg width="19" height="19" viewBox="0 0 19 19" fill="none" xmlns="http://www.w3.org/2000/svg">
<g id="Group 17">
<path id="Vector" d="M15.4 7.92003V16.2C15.4 16.4364 15.3534 16.6705 15.263 16.8889C15.1725 17.1072 15.0399 17.3057 14.8728 17.4728C14.7056 17.64 14.5072 17.7726 14.2888 17.863C14.0704 17.9535 13.8364 18 13.6 18H2.8C2.32261 18 1.86477 17.8104 1.52721 17.4728C1.18964 17.1353 1 16.6774 1 16.2V5.40004C1 4.92265 1.18964 4.46481 1.52721 4.12724C1.86477 3.78968 2.32261 3.60004 2.8 3.60004H10.3366" stroke="#6E6E6E" stroke-linecap="round" stroke-linejoin="round"/>
<path id="Vector_2" d="M18.8173 0.236263C18.7515 0.164012 18.6718 0.105842 18.5829 0.0652701C18.494 0.0246979 18.3979 0.00256552 18.3002 0.000210099C18.2025 -0.00214532 18.1054 0.0153252 18.0147 0.051566C17.924 0.0878068 17.8415 0.142065 17.7724 0.211063L17.2157 0.765013C17.1483 0.832519 17.1104 0.924051 17.1104 1.01949C17.1104 1.11492 17.1483 1.20646 17.2157 1.27396L17.726 1.78336C17.7595 1.81697 17.7992 1.84364 17.843 1.86183C17.8868 1.88003 17.9338 1.8894 17.9812 1.8894C18.0286 1.8894 18.0755 1.88003 18.1193 1.86183C18.1631 1.84364 18.2029 1.81697 18.2363 1.78336L18.779 1.24336C19.0535 0.969312 19.0792 0.522913 18.8173 0.236263ZM16.0903 1.89001L7.96687 9.99901C7.91762 10.0481 7.88182 10.109 7.86292 10.1759L7.48717 11.295C7.47817 11.3254 7.47754 11.3576 7.48533 11.3883C7.49312 11.419 7.50906 11.447 7.53145 11.4694C7.55385 11.4918 7.58188 11.5078 7.61258 11.5156C7.64327 11.5233 7.67551 11.5227 7.70587 11.5137L8.82412 11.138C8.89102 11.1191 8.95192 11.0833 9.00097 11.034L17.11 2.90971C17.185 2.83389 17.2271 2.73153 17.2271 2.62486C17.2271 2.5182 17.185 2.41584 17.11 2.34001L16.6622 1.89001C16.5863 1.81431 16.4835 1.77179 16.3762 1.77179C16.269 1.77179 16.1662 1.81431 16.0903 1.89001Z" fill="#6E6E6E"/>
</g>
</svg>
