<svg width="20" height="16" viewBox="0 0 20 16" fill="none" xmlns="http://www.w3.org/2000/svg">
<path d="M14.2361 3.30475L13.0715 1.46463C12.8261 1.1785 12.4896 1 12.1125 1H8.0875C7.71038 1 7.37394 1.1785 7.1285 1.46463L5.96388 3.30475C5.71844 3.59131 5.40213 3.8 5.025 3.8H2.4C2.0287 3.8 1.6726 3.9475 1.41005 4.21005C1.1475 4.4726 1 4.8287 1 5.2V13.6C1 13.9713 1.1475 14.3274 1.41005 14.5899C1.6726 14.8525 2.0287 15 2.4 15H17.8C18.1713 15 18.5274 14.8525 18.79 14.5899C19.0525 14.3274 19.2 13.9713 19.2 13.6V5.2C19.2 4.8287 19.0525 4.4726 18.79 4.21005C18.5274 3.9475 18.1713 3.8 17.8 3.8H15.2188C14.8403 3.8 14.4816 3.59131 14.2361 3.30475Z" stroke="#00C5A1" stroke-width="1.5" stroke-linecap="round" stroke-linejoin="round"/>
<path d="M10.1001 12.1997C12.0331 12.1997 13.6001 10.6327 13.6001 8.69971C13.6001 6.76671 12.0331 5.19971 10.1001 5.19971C8.1671 5.19971 6.6001 6.76671 6.6001 8.69971C6.6001 10.6327 8.1671 12.1997 10.1001 12.1997Z" stroke="#00C5A1" stroke-width="1.5" stroke-miterlimit="10"/>
<path d="M4.3249 3.7125V2.75H3.2749V3.7125" stroke="#00C5A1" stroke-width="1.5" stroke-linecap="round" stroke-linejoin="round"/>
</svg>
