<svg width="20" height="17" viewBox="0 0 20 17" fill="none" xmlns="http://www.w3.org/2000/svg">
<path id="Vector" d="M10 4.75C10.6429 2.28282 13.0708 1.02305 18.3571 1C18.4416 0.999695 18.5254 1.01565 18.6035 1.04695C18.6817 1.07825 18.7527 1.12427 18.8124 1.18237C18.8722 1.24047 18.9195 1.30949 18.9517 1.38546C18.9839 1.46143 19.0003 1.54284 19 1.625V12.875C19 13.0408 18.9323 13.1997 18.8117 13.3169C18.6911 13.4342 18.5276 13.5 18.3571 13.5C13.2143 13.5 11.2275 14.5082 10 16M10 4.75C9.35714 2.28282 6.92915 1.02305 1.64286 1C1.55835 0.999695 1.47461 1.01565 1.39647 1.04695C1.31834 1.07825 1.24734 1.12427 1.18758 1.18237C1.12782 1.24047 1.08048 1.30949 1.04829 1.38546C1.0161 1.46143 0.999686 1.54284 1 1.625V12.7996C1 13.1855 1.2459 13.5 1.64286 13.5C6.78572 13.5 8.77978 14.5156 10 16M10 4.75V16" stroke="#6E6E6E" stroke-linecap="round" stroke-linejoin="round"/>
</svg>
