<svg width="30" height="28" viewBox="0 0 30 28" fill="none" xmlns="http://www.w3.org/2000/svg">
<g id="Group 11">
<path id="Vector" d="M14.7026 27C18.5686 27 21.7026 23.866 21.7026 20C21.7026 16.134 18.5686 13 14.7026 13C10.8366 13 7.70264 16.134 7.70264 20C7.70264 23.866 10.8366 27 14.7026 27Z" stroke="#D9D9D9" stroke-width="2" stroke-linecap="round" stroke-linejoin="round"/>
<path id="Vector_2" d="M14.7026 23C16.3595 23 17.7026 21.6569 17.7026 20C17.7026 18.3431 16.3595 17 14.7026 17C13.0458 17 11.7026 18.3431 11.7026 20C11.7026 21.6569 13.0458 23 14.7026 23Z" stroke="#D9D9D9" stroke-width="2" stroke-linecap="round" stroke-linejoin="round"/>
<path id="Vector_3" d="M7.88991 18.1875L1.31741 7.9575C1.1299 7.66568 1.02151 7.33011 1.00289 6.98375C0.984259 6.63738 1.05603 6.29212 1.21116 5.98187L3.14866 2.10688C3.31468 1.77425 3.57011 1.49447 3.8863 1.29895C4.20249 1.10343 4.56691 0.999908 4.93866 1H24.4662C24.8376 1.00002 25.2016 1.10347 25.5176 1.29875C25.8335 1.49403 26.0888 1.77342 26.2549 2.10563L28.1924 5.98063C28.3475 6.29087 28.4193 6.63613 28.4007 6.9825C28.3821 7.32886 28.2737 7.66443 28.0862 7.95625L21.5149 18.1875M21.8899 7H1.01491M25.4987 1.2875L17.7649 13.625M7.48679 7L11.6399 13.625" stroke="#D9D9D9" stroke-width="2" stroke-linecap="round" stroke-linejoin="round"/>
</g>
</svg>
