<svg width="7" height="12" viewBox="0 0 7 12" fill="none" xmlns="http://www.w3.org/2000/svg">
<rect width="7" height="12" fill="#4D4D4D"/>
<g id="2-a" clip-path="url(#clip0_204_6)">
<rect width="390" height="844" transform="translate(-52 -171)" fill="#F5F5F5"/>
<rect id="Rectangle 1" x="-27.5" y="-21.5" width="341" height="471" rx="4.5" fill="white" stroke="#00C5A1"/>
<path id="Rectangle 2" d="M-27.5 -17C-27.5 -19.4853 -25.4853 -21.5 -23 -21.5H309C311.485 -21.5 313.5 -19.4853 313.5 -17V29.5H-27.5V-17Z" fill="#00C5A1" stroke="#00C5A1"/>
<path id="b" d="M6.11667 12C5.88261 12 5.66231 11.9122 5.49709 11.7502L0.25816 6.61318C-0.0860533 6.27566 -0.0860533 5.73562 0.25816 5.40486L5.49709 0.267798C5.82753 -0.0764726 6.38516 -0.0899734 6.72937 0.234046C7.07359 0.558065 7.09424 1.10485 6.76379 1.44237C6.75002 1.45587 6.74314 1.46262 6.72937 1.47612L2.11003 6.00564L6.72937 10.5352C7.07359 10.8727 7.07359 11.4127 6.72937 11.7435C6.56415 11.9055 6.34385 11.9932 6.10979 11.9932L6.11667 12Z" fill="white"/>
</g>
<defs>
<clipPath id="clip0_204_6">
<rect width="390" height="844" fill="white" transform="translate(-52 -171)"/>
</clipPath>
</defs>
</svg>
