<svg width="20" height="20" viewBox="0 0 20 20" fill="none" xmlns="http://www.w3.org/2000/svg">
<path id="b" d="M18.6715 8.5228L16.3582 8.14666C16.2213 7.68161 16.0365 7.23708 15.8038 6.81307L17.1521 4.8845C17.2616 4.7272 17.2411 4.5152 17.111 4.38526L15.5848 2.86702C15.4479 2.73024 15.2357 2.71657 15.0783 2.82599L13.1825 4.18693C12.7582 3.95441 12.3065 3.76292 11.8411 3.62614L11.4373 1.32143C11.4099 1.13678 11.2456 1 11.0608 1H8.90494C8.71331 1 8.54905 1.13678 8.52167 1.32827L8.14525 3.6193C7.67985 3.75608 7.22814 3.94073 6.79696 4.17325L4.90798 2.82599C4.75057 2.71657 4.5384 2.73024 4.40152 2.86702L2.88213 4.38526C2.74525 4.52204 2.73156 4.7272 2.84106 4.8845L4.16882 6.78571C3.92928 7.21657 3.74449 7.66793 3.6076 8.13982L1.32852 8.5228C1.13688 8.55015 1 8.71429 1 8.90578V11.06C1 11.2515 1.13688 11.4088 1.32167 11.443L3.6076 11.8465C3.74449 12.3184 3.93612 12.7698 4.16882 13.2006L2.82053 15.0813C2.71103 15.2386 2.72471 15.4506 2.8616 15.5874L4.38099 17.1125C4.51787 17.2492 4.73004 17.2629 4.88061 17.1535L6.79011 15.8199C7.21445 16.0524 7.673 16.2439 8.1384 16.3807L8.52167 18.6717C8.55589 18.8632 8.71331 19 8.90494 19H11.0608C11.2525 19 11.4099 18.8632 11.4441 18.6786L11.8548 16.3739C12.3202 16.2371 12.7719 16.0456 13.1962 15.8131L15.1194 17.1603C15.2768 17.2698 15.489 17.2492 15.619 17.1193L17.1384 15.5942C17.2753 15.4574 17.289 15.2454 17.1795 15.0881L15.8106 13.1869C16.0433 12.7629 16.2281 12.3184 16.3582 11.8533L18.6783 11.4498C18.8631 11.4157 19 11.2515 19 11.0669V8.91261C19 8.72112 18.8631 8.55699 18.6715 8.52964V8.5228ZM9.99316 12.7356C8.48061 12.7356 7.25551 11.5114 7.25551 10C7.25551 8.4886 8.48061 7.26444 9.99316 7.26444C11.5057 7.26444 12.7308 8.4886 12.7308 10C12.7308 11.5114 11.5057 12.7356 9.99316 12.7356Z" stroke="#6E6E6E"/>
</svg>
